<svg xmlns="http://www.w3.org/2000/svg" viewBox="0 0 200 80"><defs><mask id="a" width="104.2" height="30.3" x="20.2" y="24" maskUnits="userSpaceOnUse"><path fill="#fff" fill-rule="evenodd" d="M20.2 24h104.3v30.4H20.2z"/></mask><mask id="b" width="67" height="59.8" x="112.8" y="13.4" maskUnits="userSpaceOnUse"><path fill="#fff" fill-rule="evenodd" d="M112.8 13.4V24h3.7v-6.8H176v52.2h-59.5v-7h-3.7V73h67V13.4zm42.6 29.5v.8c0 7.7 2.4 10.9 5.6 10.9a4.5 4.5 0 0 0 2.6-.7v-3.8a3.8 3.8 0 0 1-2 .7c-1.6 0-2.7-1.2-2.7-7v-1c0-5.5 1.1-7 2.7-7a3.4 3.4 0 0 1 1.9.7v-4a4.5 4.5 0 0 0-2.3-.5c-3.2 0-5.8 3.1-5.8 11zm-3.9-10.7l-1.9 8.3-1.9-8.3h-3.6l3.8 13.4v8.8h3.4v-8.8l3.8-13.4zm-12 0v11.5l-3.6-11.5h-3.3v22.2h3.4v-12l3.8 12h3V32.2z"/></mask><linearGradient id="c" x1="-755.1" x2="-754" y1="237.1" y2="237.1" gradientTransform="matrix(57.82 0 0 -51.57 43775.2 12269)" gradientUnits="userSpaceOnUse"><stop offset="0" stop-color="#4fe2c1"/><stop offset="1" stop-color="#234fda"/></linearGradient></defs><g mask="url(#a)"><path fill="#28386f" fill-rule="evenodd" d="M124.4 36.4c-.5-2.9-2.1-4.3-5.2-4.3h-9c-3.2 0-4.8 1.4-5.3 4.3v18h5.6v-15c0-1.2.4-1.7 1.5-1.7h5.4c1 0 1.5.5 1.5 1.6v15h5.6v-17a8.8 8.8 0 0 0 0-1zm-27.7 18h5.7V32h-5.7v22.2zM86.3 24h-5.6v30.3h5.6V37.7h5.5v-5.6h-5.5zM72.6 54.3h5.7V24h-5.7v30.3zm-38.3-15c0-1.2-.6-1.6-1.5-1.6h-5.3c-1 0-1.6.5-1.6 1.6v9.4h7a1.4 1.4 0 0 0 1.4-1.6zm5.6-2.6a6.8 6.8 0 0 1 0 .9v11.1a5.5 5.5 0 0 1-.7 3 4.5 4.5 0 0 1-4.4 2.7H20.3V24h5.6v8h9a4.6 4.6 0 0 1 1.1.2 5 5 0 0 1 4 4.5zm16.6 10.4c0 1.1-.4 1.6-1.5 1.6h-5.4c-1 0-1.5-.5-1.5-1.6V32h-5.7V49a9 9 0 0 0 .1 1c.5 2.9 2.1 4.3 5.3 4.3h9c3 0 4.7-1.4 5.2-4.3a9 9 0 0 0 0-1V32h-5.5v15zm8 7.3h5.7V32h-5.6v22.3z"/></g><g mask="url(#b)"><path fill="url(#c)" fill-rule="evenodd" d="M112.8 13.4V24h3.7v-6.8H176v52.2h-59.5v-7h-3.7V73h67V13.4zm42.6 29.5v.8c0 7.7 2.4 10.9 5.6 10.9a4.5 4.5 0 0 0 2.6-.7v-3.8a3.8 3.8 0 0 1-2 .7c-1.6 0-2.7-1.2-2.7-7v-1c0-5.5 1.1-7 2.7-7a3.4 3.4 0 0 1 1.9.7v-4a4.5 4.5 0 0 0-2.3-.5c-3.2 0-5.8 3.1-5.8 11zm-3.9-10.7l-1.9 8.3-1.9-8.3h-3.6l3.8 13.4v8.8h3.4v-8.8l3.8-13.4zm-12 0v11.5l-3.6-11.5h-3.3v22.2h3.4v-12l3.8 12h3V32.2z"/></g></svg>
